<svg width="32" height="32" viewBox="0 0 32 32" fill="none" xmlns="http://www.w3.org/2000/svg">
<mask id="path-1-inside-1_144_1092" fill="white">
<path fill-rule="evenodd" clip-rule="evenodd" d="M16 32C16.924 32 17.8297 31.9217 18.7108 31.7713C20.4246 31.4788 21.5485 29.8802 21.3982 28.1481C21.273 26.7048 21.0355 25.3521 20.7034 24.0852C20.6894 24.0318 20.6344 24.0003 20.5813 24.0153V24.0153C18.8281 24.5103 17.2216 25.3964 15.9749 26.8289C15.3187 27.5828 14.7543 28.497 14.3207 29.601C13.8578 30.7793 14.734 32 16 32V32ZM15.2206 26.1723C13.0162 28.705 9.8915 31.1694 7.10247 29.2999C2.81937 26.4289 0 21.5437 0 16C0 15.7889 0.004089 15.5787 0.0121921 15.3696C0.204398 10.4089 5.76025 8.01223 10.0617 10.4907C11.6073 11.3812 13.1467 12.4803 14.5716 13.8139C17.0238 16.109 19.1423 19.1029 20.3704 22.94C20.3858 22.9879 20.3581 23.0392 20.3096 23.0529V23.0529C18.4082 23.5897 16.6193 24.5653 15.2206 26.1723V26.1723ZM26.2739 22.5721C23.6085 22.348 20.8302 20.8184 19.5177 18.4877C18.3303 16.3792 16.8628 14.5887 15.255 13.0838V13.0838C10.4395 8.57679 8.23487 0.525841 14.8128 0.0433782C15.2048 0.0146283 15.6007 0 16 0C24.8366 0 32 7.16344 32 16C32 17.1209 31.8847 18.2149 31.6654 19.2708C31.1604 21.702 28.7483 22.7802 26.2739 22.5721V22.5721ZM24.4801 23.5003C22.9435 23.5093 21.9717 24.8957 22.2001 26.4153V26.4153C22.4855 28.3142 24.484 29.7028 25.9838 28.5037C26.3078 28.2447 26.6215 27.9733 26.9241 27.6904C28.5779 26.1443 27.5516 23.5993 25.2893 23.5135C25.0209 23.5033 24.7509 23.4987 24.4801 23.5003ZM23.6187 12.1906C24.8811 12.1906 25.9044 11.1672 25.9044 9.90485C25.9044 8.64249 24.8811 7.61914 23.6187 7.61914C22.3564 7.61914 21.333 8.64249 21.333 9.90485C21.333 11.1672 22.3564 12.1906 23.6187 12.1906Z"/>
</mask>
<path fill-rule="evenodd" clip-rule="evenodd" d="M16 32C16.924 32 17.8297 31.9217 18.7108 31.7713C20.4246 31.4788 21.5485 29.8802 21.3982 28.1481C21.273 26.7048 21.0355 25.3521 20.7034 24.0852C20.6894 24.0318 20.6344 24.0003 20.5813 24.0153V24.0153C18.8281 24.5103 17.2216 25.3964 15.9749 26.8289C15.3187 27.5828 14.7543 28.497 14.3207 29.601C13.8578 30.7793 14.734 32 16 32V32ZM15.2206 26.1723C13.0162 28.705 9.8915 31.1694 7.10247 29.2999C2.81937 26.4289 0 21.5437 0 16C0 15.7889 0.004089 15.5787 0.0121921 15.3696C0.204398 10.4089 5.76025 8.01223 10.0617 10.4907C11.6073 11.3812 13.1467 12.4803 14.5716 13.8139C17.0238 16.109 19.1423 19.1029 20.3704 22.94C20.3858 22.9879 20.3581 23.0392 20.3096 23.0529V23.0529C18.4082 23.5897 16.6193 24.5653 15.2206 26.1723V26.1723ZM26.2739 22.5721C23.6085 22.348 20.8302 20.8184 19.5177 18.4877C18.3303 16.3792 16.8628 14.5887 15.255 13.0838V13.0838C10.4395 8.57679 8.23487 0.525841 14.8128 0.0433782C15.2048 0.0146283 15.6007 0 16 0C24.8366 0 32 7.16344 32 16C32 17.1209 31.8847 18.2149 31.6654 19.2708C31.1604 21.702 28.7483 22.7802 26.2739 22.5721V22.5721ZM24.4801 23.5003C22.9435 23.5093 21.9717 24.8957 22.2001 26.4153V26.4153C22.4855 28.3142 24.484 29.7028 25.9838 28.5037C26.3078 28.2447 26.6215 27.9733 26.9241 27.6904C28.5779 26.1443 27.5516 23.5993 25.2893 23.5135C25.0209 23.5033 24.7509 23.4987 24.4801 23.5003ZM23.6187 12.1906C24.8811 12.1906 25.9044 11.1672 25.9044 9.90485C25.9044 8.64249 24.8811 7.61914 23.6187 7.61914C22.3564 7.61914 21.333 8.64249 21.333 9.90485C21.333 11.1672 22.3564 12.1906 23.6187 12.1906Z" fill="#333333"/>
<path d="M15.9749 26.8289L15.2206 26.1723H15.2206L15.9749 26.8289ZM14.5716 13.8139L15.255 13.0838L14.5716 13.8139ZM26.9241 27.6904L27.6071 28.4209L26.9241 27.6904ZM31.6654 19.2708L30.6863 19.0674L31.6654 19.2708ZM20.3704 22.94L21.3228 22.6352L20.3704 22.94ZM25.9838 28.5037L25.3594 27.7226L25.9838 28.5037ZM7.10247 29.2999L6.54567 30.1306L7.10247 29.2999ZM19.5177 18.4877L20.389 17.997L19.5177 18.4877ZM20.7034 24.0852L19.7361 24.3387L20.7034 24.0852ZM14.3207 29.601L15.2514 29.9666L14.3207 29.601ZM18.5426 30.7856C17.7168 30.9265 16.8674 31 16 31V33C16.9806 33 17.9426 32.9169 18.879 32.7571L18.5426 30.7856ZM19.7361 24.3387C20.0535 25.5496 20.2815 26.8464 20.4019 28.2345L22.3945 28.0616C22.2645 26.5633 22.0175 25.1545 21.6707 23.8316L19.7361 24.3387ZM20.3096 23.0529C18.4082 23.5897 16.6192 24.5654 15.2206 26.1723L16.7292 27.4854C17.8241 26.2275 19.2481 25.4308 20.853 24.9776L20.3096 23.0529ZM15.2206 26.1723C14.4863 27.016 13.8636 28.0295 13.3899 29.2354L15.2514 29.9666C15.645 28.9645 16.151 28.1496 16.7292 27.4854L15.2206 26.1723ZM7.65927 28.4693C3.64135 25.776 1 21.1962 1 16H-1C-1 21.8911 1.99739 27.0818 6.54567 30.1306L7.65927 28.4693ZM1 16C1 15.8018 1.00384 15.6045 1.01144 15.4083L-0.987058 15.3309C-0.995661 15.5529 -1 15.776 -1 16H1ZM9.5625 11.3571C11.0492 12.2137 12.5253 13.2683 13.8883 14.544L15.255 13.0838C13.7682 11.6923 12.1655 10.5487 10.561 9.6242L9.5625 11.3571ZM13.8883 14.544C16.231 16.7366 18.2478 19.5887 19.418 23.2448L21.3228 22.6352C20.0368 18.6172 17.8165 15.4813 15.255 13.0838L13.8883 14.544ZM15.9749 26.8289C17.2216 25.3965 18.8281 24.5103 20.5813 24.0153L20.0379 22.0905C17.9884 22.6692 16.0169 23.7342 14.4663 25.5158L15.9749 26.8289ZM20.389 17.997C19.1471 15.7917 17.6137 13.9218 15.9383 12.3537L14.5716 13.8139C16.1119 15.2555 17.5135 16.9668 18.6464 18.9784L20.389 17.997ZM14.886 1.0407C15.2536 1.01373 15.6251 1 16 1V-1C15.5763 -1 15.156 -0.984476 14.7397 -0.953943L14.886 1.0407ZM16 1C24.2843 1 31 7.71573 31 16H33C33 6.61116 25.3888 -1 16 -1V1ZM31 16C31 17.0522 30.8918 18.078 30.6863 19.0674L32.6445 19.4742C32.8776 18.3518 33 17.1897 33 16H31ZM26.2412 26.9599C25.9574 27.2253 25.6632 27.4797 25.3594 27.7226L26.6083 29.2847C26.9524 29.0096 27.2856 28.7214 27.6071 28.4209L26.2412 26.9599ZM25.3272 22.5142C25.0448 22.5035 24.7602 22.4987 24.4743 22.5003L24.486 24.5003C24.7417 24.4988 24.9971 24.5031 25.2514 24.5128L25.3272 22.5142ZM24.9044 9.90485C24.9044 10.6149 24.3288 11.1906 23.6187 11.1906V13.1906C25.4334 13.1906 26.9044 11.7195 26.9044 9.90485H24.9044ZM23.6187 8.61914C24.3288 8.61914 24.9044 9.19477 24.9044 9.90485H26.9044C26.9044 8.0902 25.4334 6.61914 23.6187 6.61914V8.61914ZM22.333 9.90485C22.333 9.19477 22.9086 8.61914 23.6187 8.61914V6.61914C21.8041 6.61914 20.333 8.0902 20.333 9.90485H22.333ZM23.6187 11.1906C22.9086 11.1906 22.333 10.6149 22.333 9.90485H20.333C20.333 11.7195 21.8041 13.1906 23.6187 13.1906V11.1906ZM27.6071 28.4209C28.7385 27.3631 28.9868 25.9031 28.5051 24.6863C28.0264 23.4771 26.8541 22.5721 25.3272 22.5142L25.2514 24.5128C25.9868 24.5407 26.4589 24.9511 26.6455 25.4224C26.829 25.8861 26.7636 26.4716 26.2412 26.9599L27.6071 28.4209ZM23.189 26.2666C23.0323 25.2244 23.6785 24.505 24.486 24.5003L24.4743 22.5003C22.2085 22.5136 20.9111 24.567 21.2112 26.5639L23.189 26.2666ZM30.6863 19.0674C30.3275 20.7947 28.5745 21.7621 26.3577 21.5756L26.1901 23.5686C28.9222 23.7984 31.9932 22.6094 32.6445 19.4742L30.6863 19.0674ZM15.9383 12.3537C13.6592 10.2206 12.0489 7.28339 11.7536 4.92987C11.6071 3.76252 11.7955 2.85396 12.2411 2.23505C12.6682 1.64198 13.4541 1.14572 14.886 1.0407L14.7397 -0.953943C12.8826 -0.817733 11.4773 -0.126697 10.6182 1.06632C9.77765 2.2335 9.58479 3.70983 9.76914 5.1789C10.1355 8.09823 12.0353 11.44 14.5716 13.8139L15.9383 12.3537ZM19.418 23.2448C19.2599 22.7509 19.5448 22.2297 20.0379 22.0905L20.5813 24.0153C21.1713 23.8487 21.5116 23.225 21.3228 22.6352L19.418 23.2448ZM21.2112 26.5639C21.3974 27.8027 22.138 28.887 23.1212 29.4782C24.1382 30.0897 25.4768 30.1894 26.6083 29.2847L25.3594 27.7226C24.9911 28.0171 24.5805 28.022 24.1519 27.7642C23.6895 27.4862 23.2882 26.9268 23.189 26.2666L21.2112 26.5639ZM1.01144 15.4083C1.09176 13.3353 2.27647 11.8124 3.91854 11.0468C5.57682 10.2737 7.69703 10.2823 9.5625 11.3571L10.561 9.6242C8.12496 8.22062 5.3165 8.18835 3.07343 9.23411C0.814154 10.2874 -0.87517 12.4431 -0.987058 15.3309L1.01144 15.4083ZM6.54567 30.1306C8.32838 31.3255 10.2097 31.0863 11.8261 30.2823C13.4059 29.4965 14.8411 28.1315 15.9749 26.8289L14.4663 25.5158C13.3957 26.7458 12.1663 27.8793 10.9354 28.4916C9.74108 29.0856 8.66559 29.1438 7.65927 28.4693L6.54567 30.1306ZM18.6464 18.9784C20.1491 21.6468 23.255 23.3218 26.1901 23.5686L26.3577 21.5756C23.962 21.3742 21.5114 19.99 20.389 17.997L18.6464 18.9784ZM21.6707 23.8316C21.515 23.2378 20.9023 22.8855 20.3096 23.0529L20.853 24.9776C20.3666 25.115 19.8637 24.8257 19.7361 24.3387L21.6707 23.8316ZM13.3899 29.2354C12.6552 31.1059 14.0685 33 16 33V31C15.3996 31 15.0605 30.4528 15.2514 29.9666L13.3899 29.2354ZM18.879 32.7571C21.1535 32.3689 22.5854 30.2624 22.3945 28.0616L20.4019 28.2345C20.5115 29.4979 19.6957 30.5888 18.5426 30.7856L18.879 32.7571Z" fill="#333333" mask="url(#path-1-inside-1_144_1092)"/>
</svg>
